# xmcd CD database file
#
# Track frame offsets:
#	150
#	23917
#	39488
#	54745
#	71175
#	83518
#	99109
#	114439
#	133516
#	142797
#	158053
#	172055
#	184021
#	195186
#	205680
#	227802
#	239757
#	256464
#	269882
#	280551
#	294198
#	303858
#	313522
#	328477
#	343496
#
# Disc length: 4765 seconds
#
# Revision: 0
# Processed by: cddbd v1.4PL0 Copyright (c) Steve Scherf et al.
# Submitted via: Feurio! 1.65 - http://www.feurio.com
#
DISCID=6c129b19
DTITLE=Reg Poole and Johnny Ashcroft - Reg Poole - Rigs and Roads/ Johnny 
DTITLE=Ashcroft - I've got a thing about trains
DYEAR=1900
DGENRE=Country
TTITLE0=Reg Poole - Devil's Drive
TTITLE1=Reg Poole - Thru The Eyes Of A Truckie
TTITLE2=Reg Poole - Truck Stop Encounter
TTITLE3=Reg Poole - The Truckdriver's Waltz
TTITLE4=Reg Poole - The Long Load
TTITLE5=Reg Poole - Interstater
TTITLE6=Reg Poole - A Greasy Bloody Truckie
TTITLE7=Reg Poole - Fireball Dan
TTITLE8=Reg Poole - Tow Truck Man
TTITLE9=Reg Poole - Princess Of The Highway
TTITLE10=Reg Poole - How Come I'm Here Tonight
TTITLE11=Reg Poole - Roll Trucker Roll
TTITLE12=Johnny Ashcroft - Orange Blossom Special
TTITLE13=Johnny Ashcroft - Rock Island Line
TTITLE14=Johnny Ashcroft - Big Railroad Man
TTITLE15=Johnny Ashcroft - Look Out Here She Comes
TTITLE16=Johnny Ashcroft - City Of New Orleans
TTITLE17=Johnny Ashcroft - Jolly Green Giant
TTITLE18=Johnny Ashcroft - The Wreck Of The Old 97
TTITLE19=Johnny Ashcroft - The Train I'm On
TTITLE20=Johnny Ashcroft - Wabash Cannonball
TTITLE21=Johnny Ashcroft - I'm Movin' On
TTITLE22=Johnny Ashcroft - Two Old Timers
TTITLE23=Johnny Ashcroft - I Dreamed I Was A Railroad Man
TTITLE24=Johnny Ashcroft - Epilogue
EXTD=
EXTT0=(Alan Caswell)
EXTT1=(Shorty Ranger)
EXTT2=(Dusty Spittle)
EXTT3=(Kevin Shegog)
EXTT4=(John Minson)
EXTT5=(Reg Poole)
EXTT6=(Joe Daly - Reg Poole)
EXTT7=(Eric Watson)
EXTT8=(George Dasey)
EXTT9=(Reg Poole)
EXTT10=(Ian Betteridge)
EXTT11=(Johnny Chester)
EXTT12=
EXTT13=
EXTT14=
EXTT15=
EXTT16=
EXTT17=
EXTT18=
EXTT19=
EXTT20=
EXTT21=
EXTT22=
EXTT23=
EXTT24=
PLAYORDER=
